# xmcd
#
# Track frame offsets: 
#        150
#        21684
#        43247
#        70871
#        86095
#        111592
#        126266
#        138725
#        167165
#        183848
#        203547
#        233935
#        244119
#        262943
#
# Disc length: 3726 seconds
#
# Revision: 2
# Processed by: cddbd v1.5.2PL0 Copyright (c) Steve Scherf et al.
# Submitted via: ExactAudioCopy v0.95b3
#
DISCID=d10e8c0e
DTITLE=Pearl Jam - Pearl Jam Twenty (OST - Disc 1)
DYEAR=2011
DGENRE=Rock
TTITLE0=Release [Verona, Italy 9-16-2006]
TTITLE1=Alive [Moore Theatre, Seattle 12-22-1990]
TTITLE2=Garden [Zurich, Switzerland 2-19-1992]
TTITLE3=Why Go [Hamburg, Germany 3-10-1992]
TTITLE4=Black [MTV Unplugged, NYC 3-16-1992]
TTITLE5=Blood [Aukland, New Zealand 3-25-1995]
TTITLE6=Last Exit [Taipei, Taiwan 2-24-1995]
TTITLE7=Not For You [Manila, Philippines 2-26-1995]
TTITLE8=Do The Evolution [Monkeywrench Radio, Seattle 1-31-1998]
TTITLE9=Thumbing My Way [Chop Suey, Seattle 9-6-2002]
TTITLE10=Crown Of Thorns [10th Anniversary, Las Vegas, NV 10-22-2000]
TTITLE11=Let Me Sleep [Arena D. Verona Steps, Verona, Italy 9-16-2006]
TTITLE12=Walk With Me [feat. Neil Young] [Bridge School Benefit, Mount
TTITLE12=ain View, CA 10-23-2010]
TTITLE13=Just Breathe [SNL, Rockefeller Center, NYC 3-13-2010]
EXTD=
EXTT0=
EXTT1=
EXTT2=
EXTT3=
EXTT4=
EXTT5=
EXTT6=
EXTT7=
EXTT8=
EXTT9=
EXTT10=
EXTT11=
EXTT12=
EXTT13=
PLAYORDER=
